<?xml version="1.0" encoding="UTF-8" standalone="no"?><!DOCTYPE svg PUBLIC "-//W3C//DTD SVG 1.1//EN" "http://www.w3.org/Graphics/SVG/1.1/DTD/svg11.dtd"><svg width="100%" height="100%" viewBox="0 0 417 417" version="1.1" xmlns="http://www.w3.org/2000/svg" xmlns:xlink="http://www.w3.org/1999/xlink" xml:space="preserve" xmlns:serif="http://www.serif.com/" style="fill-rule:evenodd;clip-rule:evenodd;stroke-linejoin:round;stroke-miterlimit:2;"><path d="M158.697,72.368l-0.047,272.478c-0.002,8.791 -7.101,15.931 -15.891,15.983l-100.242,0.593c-4.256,0.025 -8.346,-1.648 -11.365,-4.648c-3.018,-3.001 -4.716,-7.081 -4.716,-11.337l-0,-274.206c-0,-4.271 1.709,-8.364 4.746,-11.367c3.037,-3.003 7.15,-4.666 11.42,-4.617l100.288,1.135c8.759,0.099 15.806,7.228 15.805,15.987Z" style="fill:#147fe6;"/><path d="M390.229,72.369l-0.066,272.478c-0.002,8.801 -7.118,15.945 -15.919,15.982l-141.852,0.593c-4.251,0.018 -8.334,-1.659 -11.347,-4.658c-3.012,-3 -4.706,-7.076 -4.706,-11.327l-0,-274.206c-0,-4.262 1.702,-8.347 4.727,-11.349c3.026,-3.001 7.124,-4.671 11.386,-4.637l141.918,1.135c8.78,0.07 15.86,7.209 15.858,15.989Z" style="fill:#147fe6;"/><path d="M177.297,40.533l0,335.555c0,8.569 20.969,8.569 20.969,0l0,-335.463c0,-8.569 -20.969,-8.661 -20.969,-0.092Z" style="fill:#e90000;"/></svg>